<svg width="14" height="8" viewBox="0 0 14 8" fill="none" xmlns="http://www.w3.org/2000/svg">
<path fill-rule="evenodd" clip-rule="evenodd" d="M0.320858 0.300692C0.521119 0.117396 0.789682 0.0172365 1.06753 0.0222238C1.34538 0.0272111 1.60978 0.136937 1.80263 0.32729L6.98883 5.56432L12.175 0.32729C12.2693 0.228421 12.3835 0.14856 12.5108 0.092438C12.6381 0.0363163 12.7759 0.00507644 12.9162 0.000568883C13.0564 -0.00393867 13.1962 0.0183776 13.3272 0.0661964C13.4582 0.114015 13.5777 0.186363 13.6788 0.278953C13.7799 0.371543 13.8604 0.482491 13.9156 0.605223C13.9707 0.727955 13.9994 0.859974 14 0.993456C14.0005 1.12694 13.9729 1.25917 13.9188 1.38231C13.8646 1.50546 13.7851 1.61701 13.6848 1.71036L7.74369 7.69477C7.64589 7.7913 7.52864 7.86808 7.39894 7.92053C7.26924 7.97297 7.12976 8 6.98883 8C6.8479 8 6.70842 7.97297 6.57872 7.92053C6.44902 7.86808 6.33177 7.7913 6.23396 7.69477L0.2929 1.71036C0.100228 1.51984 -0.00505562 1.26435 0.000186802 1.00002C0.00542922 0.735691 0.120768 0.484158 0.320858 0.300692Z" fill="white"/>
</svg>
