<svg width="44" height="44" viewBox="0 0 44 44" fill="none" xmlns="http://www.w3.org/2000/svg">
<path fill-rule="evenodd" clip-rule="evenodd" d="M4.125 9.625C4.125 8.16631 4.70446 6.76736 5.73591 5.73591C6.76736 4.70446 8.16631 4.125 9.625 4.125H34.375C35.8337 4.125 37.2326 4.70446 38.2641 5.73591C39.2955 6.76736 39.875 8.16631 39.875 9.625V27.5C39.875 28.9587 39.2955 30.3576 38.2641 31.3891C37.2326 32.4205 35.8337 33 34.375 33H28.875V33.4712C28.875 34.5657 29.3095 35.6162 30.0832 36.388L31.2217 37.5283C31.4137 37.7206 31.5445 37.9655 31.5974 38.2321C31.6504 38.4987 31.6232 38.7749 31.5192 39.026C31.4152 39.2771 31.2392 39.4918 31.0133 39.6429C30.7874 39.794 30.5218 39.8748 30.25 39.875H13.75C13.4782 39.8748 13.2126 39.794 12.9867 39.6429C12.7608 39.4918 12.5848 39.2771 12.4808 39.026C12.3768 38.7749 12.3496 38.4987 12.4026 38.2321C12.4555 37.9655 12.5863 37.7206 12.7783 37.5283L13.9168 36.388C14.69 35.6149 15.1245 34.5664 15.125 33.473V33H9.625C8.16631 33 6.76736 32.4205 5.73591 31.3891C4.70446 30.3576 4.125 28.9587 4.125 27.5V9.625ZM6.875 9.625V23.375C6.875 24.1043 7.16473 24.8038 7.68046 25.3195C8.19618 25.8353 8.89565 26.125 9.625 26.125H34.375C35.1043 26.125 35.8038 25.8353 36.3195 25.3195C36.8353 24.8038 37.125 24.1043 37.125 23.375V9.625C37.125 8.89565 36.8353 8.19618 36.3195 7.68046C35.8038 7.16473 35.1043 6.875 34.375 6.875H9.625C8.89565 6.875 8.19618 7.16473 7.68046 7.68046C7.16473 8.19618 6.875 8.89565 6.875 9.625Z" fill="white"/>
</svg>
