<svg width="18" height="18" viewBox="0 0 18 18" fill="none" xmlns="http://www.w3.org/2000/svg">
<g clip-path="url(#clip0_738_4)">
<path d="M15.2381 3.27036C14.071 2.73471 12.8393 2.35241 11.574 2.13298C11.5625 2.13105 11.5508 2.13272 11.5403 2.13776C11.5298 2.14279 11.5212 2.15095 11.5155 2.16111C11.3569 2.44236 11.1814 2.81023 11.0588 3.09823C9.69482 2.89124 8.30745 2.89124 6.94351 3.09823C6.80672 2.77741 6.65198 2.46454 6.48001 2.16111C6.47424 2.15106 6.46556 2.143 6.45512 2.13798C6.44467 2.13296 6.43296 2.13122 6.42151 2.13298C5.15588 2.35123 3.92401 2.73373 2.75738 3.27036C2.7474 3.27417 2.73905 3.28133 2.73376 3.29061C0.400507 6.77698 -0.239618 10.1779 0.0742569 13.536C0.0753819 13.5517 0.0855069 13.5675 0.0978819 13.5776C1.45657 14.5841 2.9763 15.3525 4.59226 15.8501C4.60367 15.8537 4.61593 15.8536 4.62726 15.8497C4.63859 15.8459 4.64839 15.8385 4.65526 15.8287C5.00176 15.3562 5.31001 14.8579 5.57551 14.3336C5.58104 14.3228 5.58294 14.3105 5.58091 14.2986C5.57888 14.2866 5.57304 14.2756 5.56426 14.2672C5.55844 14.2617 5.55155 14.2575 5.54401 14.2549C5.05931 14.0686 4.58989 13.8448 4.14001 13.5855C4.12744 13.5784 4.1181 13.5667 4.11391 13.5529C4.10972 13.539 4.11101 13.5241 4.11751 13.5112C4.12133 13.5029 4.12712 13.4955 4.13438 13.4899C4.22888 13.419 4.32338 13.3447 4.41338 13.2705C4.42133 13.2641 4.43087 13.26 4.44098 13.2586C4.45108 13.2572 4.46138 13.2586 4.47076 13.2626C7.41713 14.6081 10.6065 14.6081 13.5169 13.2626C13.5266 13.2584 13.5373 13.2569 13.5478 13.2583C13.5583 13.2597 13.5682 13.2639 13.5765 13.2705C13.6665 13.3447 13.761 13.419 13.8555 13.4899C13.8632 13.4955 13.8693 13.5029 13.8734 13.5114C13.8775 13.52 13.8794 13.5294 13.879 13.5389C13.8785 13.5484 13.8757 13.5576 13.8709 13.5657C13.866 13.5738 13.8592 13.5806 13.851 13.5855C13.4022 13.8472 12.9321 14.0707 12.4459 14.2537C12.4381 14.2565 12.4311 14.261 12.4252 14.2669C12.4194 14.2727 12.4149 14.2797 12.4121 14.2875C12.4095 14.295 12.4085 14.303 12.4091 14.3109C12.4096 14.3188 12.4118 14.3266 12.4155 14.3336C12.6855 14.8567 12.9949 15.3562 13.3346 15.8287C13.3415 15.8385 13.3513 15.8459 13.3626 15.8497C13.374 15.8536 13.3862 15.8537 13.3976 15.8501C15.0163 15.354 16.5385 14.5855 17.8988 13.5776C17.9056 13.5729 17.9112 13.5667 17.9153 13.5595C17.9194 13.5523 17.9218 13.5443 17.9224 13.536C18.2981 9.65361 17.2935 6.28086 15.2606 3.29173C15.2586 3.2868 15.2555 3.28234 15.2516 3.27866C15.2478 3.27498 15.2432 3.27215 15.2381 3.27036ZM6.01538 11.4907C5.12776 11.4907 4.39763 10.6762 4.39763 9.67723C4.39763 8.67711 5.11426 7.86261 6.01538 7.86261C6.92326 7.86261 7.64663 8.68386 7.63313 9.67723C7.63313 10.6762 6.91651 11.4907 6.01538 11.4907ZM11.9959 11.4907C11.1094 11.4907 10.3781 10.6762 10.3781 9.67723C10.3781 8.67711 11.0948 7.86261 11.9959 7.86261C12.9038 7.86261 13.6283 8.68386 13.6136 9.67723C13.6136 10.6762 12.9038 11.4907 11.9959 11.4907Z" fill="white"/>
</g>
<defs>
<clipPath id="clip0_738_4">
<rect width="18" height="18" fill="white"/>
</clipPath>
</defs>
</svg>
