<svg width="22" height="19" viewBox="0 0 22 19" fill="none" xmlns="http://www.w3.org/2000/svg">
<path d="M1 10V9.25C1 8.65326 2.07804 11.422 2.5 11C2.92196 10.578 17.4033 11 18 11L20 11.5C20.5967 11.5 19.419 7.23705 19.841 7.65901C20.2629 8.08097 20.5 8.65326 20.5 9.25V10M11.81 3.56L9.69 1.44C9.55073 1.30055 9.38534 1.18992 9.20328 1.11442C9.02123 1.03892 8.82609 1.00004 8.629 1H3.25C2.65326 1 2.08097 1.23705 1.65901 1.65901C1.23705 2.08097 1 2.65326 1 3.25V15.25C1 15.8467 1.23705 16.419 1.65901 16.841C2.08097 17.2629 2.65326 17.5 3.25 17.5H18.25C18.8467 17.5 19.419 17.2629 19.841 16.841C20.2629 16.419 20.5 15.8467 20.5 15.25V6.25C20.5 5.65326 20.2629 5.08097 19.841 4.65901C19.419 4.23705 18.8467 4 18.25 4H12.871C12.4733 3.99965 12.091 3.84138 11.81 3.56Z" fill="white"/>
<path d="M1 10V9.25C1 8.65326 2.07804 11.422 2.5 11C2.92196 10.578 17.4033 11 18 11L20 11.5C20.5967 11.5 19.419 7.23705 19.841 7.65901C20.2629 8.08097 20.5 8.65326 20.5 9.25V10M11.81 3.56L9.69 1.44C9.55073 1.30055 9.38534 1.18992 9.20328 1.11442C9.02123 1.03892 8.82609 1.00004 8.629 1H3.25C2.65326 1 2.08097 1.23705 1.65901 1.65901C1.23705 2.08097 1 2.65326 1 3.25V15.25C1 15.8467 1.23705 16.419 1.65901 16.841C2.08097 17.2629 2.65326 17.5 3.25 17.5H18.25C18.8467 17.5 19.419 17.2629 19.841 16.841C20.2629 16.419 20.5 15.8467 20.5 15.25V6.25C20.5 5.65326 20.2629 5.08097 19.841 4.65901C19.419 4.23705 18.8467 4 18.25 4H12.871C12.4733 3.99965 12.091 3.84138 11.81 3.56Z" stroke="white" stroke-width="1.5" stroke-linecap="round" stroke-linejoin="round"/>
</svg>
