<svg width="18" height="18" viewBox="0 0 18 18" fill="none" xmlns="http://www.w3.org/2000/svg">
<path fill-rule="evenodd" clip-rule="evenodd" d="M8.99999 0.818176C4.48118 0.818176 0.818176 4.4869 0.818176 9.0139C0.818176 12.6344 3.16227 15.7066 6.41372 16.7899C6.82281 16.8652 6.97172 16.6124 6.97172 16.3947C6.97172 16.2008 6.96518 15.6845 6.96109 15.0014C4.6849 15.4964 4.20463 13.9025 4.20463 13.9025C3.83318 12.9551 3.29645 12.7031 3.29645 12.7031C2.55354 12.1958 3.3529 12.2056 3.3529 12.2056C4.17354 12.2629 4.60554 13.05 4.60554 13.05C5.33536 14.3018 6.5209 13.9402 6.98645 13.7307C7.06172 13.2014 7.27281 12.8405 7.50681 12.636C5.69045 12.429 3.77999 11.7254 3.77999 8.58518C3.77999 7.6909 4.09909 6.95863 4.6219 6.3859C4.53763 6.1789 4.25699 5.34518 4.70209 4.21772C4.70209 4.21772 5.38936 3.99681 6.95209 5.05718C7.61953 4.87514 8.30817 4.78243 8.99999 4.78145C9.69545 4.78472 10.395 4.87554 11.0487 5.05718C12.6106 3.99681 13.2963 4.2169 13.2963 4.2169C13.743 5.34518 13.4615 6.1789 13.3781 6.3859C13.9017 6.95863 14.2192 7.6909 14.2192 8.58518C14.2192 11.7335 12.3054 12.4265 10.4834 12.6295C10.7771 12.8823 11.0381 13.3822 11.0381 14.1472C11.0381 15.2419 11.0283 16.1264 11.0283 16.3947C11.0283 16.614 11.1755 16.8693 11.5912 16.7891C13.2204 16.2426 14.6367 15.198 15.6399 13.8028C16.6431 12.4076 17.1825 10.7323 17.1818 9.0139C17.1818 4.4869 13.518 0.818176 8.99999 0.818176Z" fill="white"/>
</svg>
