<svg width="28" height="28" viewBox="0 0 28 28" fill="none" xmlns="http://www.w3.org/2000/svg">
<path d="M13.3816 4.48001C13.5457 4.31615 13.7681 4.22411 14 4.22411C14.2318 4.22411 14.4542 4.31615 14.6183 4.48001L24.7566 14.6183C24.8367 14.7043 24.9333 14.7733 25.0407 14.8211C25.148 14.8689 25.2639 14.8946 25.3814 14.8967C25.4988 14.8988 25.6155 14.8772 25.7245 14.8332C25.8335 14.7891 25.9324 14.7236 26.0155 14.6406C26.0986 14.5575 26.1641 14.4585 26.2081 14.3495C26.2521 14.2406 26.2737 14.1239 26.2717 14.0064C26.2696 13.8889 26.2439 13.773 26.196 13.6657C26.1482 13.5584 26.0793 13.4618 25.9933 13.3817L15.8561 3.24334C15.6124 2.99959 15.323 2.80623 15.0045 2.67431C14.686 2.54239 14.3447 2.47449 14 2.47449C13.6552 2.47449 13.3139 2.54239 12.9954 2.67431C12.6769 2.80623 12.3876 2.99959 12.1438 3.24334L2.00547 13.3817C1.84616 13.5468 1.75807 13.7678 1.76017 13.9973C1.76227 14.2267 1.8544 14.4461 2.01671 14.6083C2.17901 14.7704 2.39852 14.8623 2.62794 14.8642C2.85737 14.8661 3.07835 14.7778 3.24331 14.6183L13.3816 4.48001Z" fill="white"/>
<path d="M14 6.33733L23.5188 15.8562C23.5538 15.8912 23.5888 15.9238 23.625 15.9565V23.1875C23.625 24.395 22.645 25.375 21.4375 25.375H17.5C17.2679 25.375 17.0454 25.2828 16.8813 25.1187C16.7172 24.9546 16.625 24.7321 16.625 24.5V19.25C16.625 19.0179 16.5328 18.7954 16.3687 18.6313C16.2046 18.4672 15.9821 18.375 15.75 18.375H12.25C12.0179 18.375 11.7954 18.4672 11.6313 18.6313C11.4672 18.7954 11.375 19.0179 11.375 19.25V24.5C11.375 24.7321 11.2828 24.9546 11.1187 25.1187C10.9546 25.2828 10.7321 25.375 10.5 25.375H6.5625C5.98234 25.375 5.42594 25.1445 5.0157 24.7343C4.60547 24.3241 4.375 23.7677 4.375 23.1875V15.9565C4.4113 15.924 4.4467 15.8906 4.48117 15.8562L14 6.33499V6.33733Z" fill="white"/>
</svg>
