<svg width="18" height="18" viewBox="0 0 18 18" fill="none" xmlns="http://www.w3.org/2000/svg">
<path fill-rule="evenodd" clip-rule="evenodd" d="M1.05 4.555C1.15082 4.11324 1.39866 3.71881 1.75292 3.43631C2.10719 3.1538 2.54688 2.99997 3 3H15C15.4531 2.99997 15.8928 3.1538 16.2471 3.43631C16.6013 3.71881 16.8492 4.11324 16.95 4.555L9 9.414L1.05 4.555ZM1 5.697V12.801L6.803 9.243L1 5.697ZM7.761 9.83L1.191 13.857C1.35333 14.1993 1.60953 14.4884 1.92978 14.6908C2.25004 14.8931 2.62117 15.0004 3 15H15C15.3788 15.0001 15.7498 14.8926 16.0698 14.6901C16.3899 14.4876 16.6459 14.1983 16.808 13.856L10.238 9.829L9 10.586L7.761 9.83ZM11.197 9.244L17 12.801V5.697L11.197 9.243V9.244Z" fill="white"/>
</svg>
