<svg width="44" height="44" viewBox="0 0 44 44" fill="none" xmlns="http://www.w3.org/2000/svg">
<path d="M19.25 2.75V5.41845H24.75V2.75H19.25Z" fill="white"/>
<path d="M19.25 2.75H15.125C14.031 2.75 12.9818 3.17171 12.2082 3.92236C11.4346 4.673 11 5.6911 11 6.75267V36.1056C11 37.1672 11.4346 38.1853 12.2082 38.9359C12.9818 39.6866 14.031 40.1083 15.125 40.1083H28.875C29.969 40.1083 31.0182 39.6866 31.7918 38.9359C32.5654 38.1853 33 37.1672 33 36.1056V6.75267C33 5.6911 32.5654 4.673 31.7918 3.92236C31.0182 3.17171 29.969 2.75 28.875 2.75H24.75M19.25 2.75V5.41845H24.75V2.75M19.25 2.75H24.75M19.25 36.1056H24.75" stroke="white" stroke-width="2.5" stroke-linecap="round" stroke-linejoin="round"/>
</svg>
