<svg width="18" height="18" viewBox="0 0 18 18" fill="none" xmlns="http://www.w3.org/2000/svg">
<path fill-rule="evenodd" clip-rule="evenodd" d="M15.4534 7.88136L4.27335 1.4747C4.10859 1.38092 3.92204 1.33216 3.73246 1.33333C3.54288 1.3345 3.35695 1.38556 3.19335 1.48136C3.03306 1.57391 2.89999 1.70705 2.80753 1.86739C2.71507 2.02773 2.66649 2.20961 2.66669 2.3947V15.208C2.66845 15.4898 2.78161 15.7594 2.98145 15.958C3.1813 16.1566 3.45161 16.268 3.73335 16.268C3.92224 16.2674 4.10794 16.2192 4.27335 16.128L15.4534 9.72136C15.619 9.6315 15.7573 9.4986 15.8537 9.33667C15.95 9.17474 16.0009 8.9898 16.0009 8.80136C16.0009 8.61292 15.95 8.42798 15.8537 8.26605C15.7573 8.10413 15.619 7.97122 15.4534 7.88136ZM10.1467 9.5547L11.4067 10.8147L5.52669 14.1747L10.1467 9.5547ZM5.52669 3.42136L11.4067 6.78803L10.1467 8.04803L5.52669 3.42136ZM12.36 10.2614L10.9 8.80136L12.36 7.34136L14.92 8.80136L12.36 10.2614Z" fill="white"/>
</svg>
