<svg width="28" height="28" viewBox="0 0 28 28" fill="none" xmlns="http://www.w3.org/2000/svg">
<path fill-rule="evenodd" clip-rule="evenodd" d="M12.9243 2.625C11.8545 2.625 10.9422 3.3985 10.766 4.45317L10.5583 5.70383C10.535 5.84383 10.4242 6.00717 10.2118 6.10983C9.81206 6.302 9.4275 6.5243 9.06148 6.77483C8.86782 6.909 8.67182 6.92183 8.53648 6.87167L7.34998 6.426C6.86493 6.24428 6.33113 6.24057 5.8436 6.41554C5.35607 6.59052 4.94645 6.93281 4.68765 7.3815L3.61198 9.24467C3.35309 9.69308 3.26165 10.2188 3.35394 10.7283C3.44622 11.2378 3.71625 11.698 4.11598 12.0272L5.09598 12.8345C5.20682 12.9255 5.29432 13.1017 5.27565 13.3362C5.2424 13.7785 5.2424 14.2227 5.27565 14.665C5.29315 14.8983 5.20682 15.0757 5.09715 15.1667L4.11598 15.974C3.71625 16.3031 3.44622 16.7634 3.35394 17.2729C3.26165 17.7824 3.35309 18.3081 3.61198 18.7565L4.68765 20.6197C4.94663 21.0681 5.35634 21.4102 5.84385 21.585C6.33136 21.7597 6.86506 21.7558 7.34998 21.574L8.53882 21.1283C8.67298 21.0782 8.86898 21.0922 9.06382 21.224C9.42782 21.4737 9.81165 21.6965 10.213 21.889C10.4253 21.9917 10.5362 22.155 10.5595 22.2973L10.7672 23.5468C10.9433 24.6015 11.8557 25.375 12.9255 25.375H15.0768C16.1455 25.375 17.059 24.6015 17.2352 23.5468L17.4428 22.2962C17.4662 22.1562 17.5758 21.9928 17.7893 21.889C18.1907 21.6965 18.5745 21.4737 18.9385 21.224C19.1333 21.091 19.3293 21.0782 19.4635 21.1283L20.6535 21.574C21.1382 21.7551 21.6715 21.7585 22.1585 21.5835C22.6455 21.4086 23.0548 21.0667 23.3135 20.6185L24.3903 18.7553C24.6492 18.3069 24.7407 17.7812 24.6484 17.2717C24.5561 16.7622 24.2861 16.302 23.8863 15.9728L22.9063 15.1655C22.7955 15.0745 22.708 14.8983 22.7267 14.6638C22.7598 14.2215 22.7598 13.7773 22.7267 13.335C22.708 13.1017 22.7955 12.9243 22.9052 12.8333L23.8852 12.026C24.7112 11.347 24.9247 10.171 24.3903 9.2435L23.3147 7.38033C23.0557 6.93185 22.646 6.5898 22.1585 6.41505C21.6709 6.2403 21.1372 6.24418 20.6523 6.426L19.4623 6.87167C19.3293 6.92183 19.1333 6.90783 18.9385 6.77483C18.5728 6.52434 18.1887 6.30204 17.7893 6.10983C17.5758 6.00833 17.4662 5.845 17.4428 5.70383L17.234 4.45317C17.1489 3.94224 16.8853 3.47808 16.49 3.14331C16.0948 2.80854 15.5936 2.62487 15.0757 2.625H12.9255H12.9243ZM14 18.375C15.1603 18.375 16.2731 17.9141 17.0936 17.0936C17.914 16.2731 18.375 15.1603 18.375 14C18.375 12.8397 17.914 11.7269 17.0936 10.9064C16.2731 10.0859 15.1603 9.625 14 9.625C12.8397 9.625 11.7269 10.0859 10.9064 10.9064C10.0859 11.7269 9.62498 12.8397 9.62498 14C9.62498 15.1603 10.0859 16.2731 10.9064 17.0936C11.7269 17.9141 12.8397 18.375 14 18.375Z" fill="white"/>
</svg>
