<svg width="20" height="20" viewBox="0 0 20 20" fill="none" xmlns="http://www.w3.org/2000/svg">
<path fill-rule="evenodd" clip-rule="evenodd" d="M13.75 3.73168V3.92085C14.8325 4.01984 15.9106 4.16218 16.9817 4.34752C17.0625 4.36153 17.1399 4.39133 17.2092 4.43521C17.2786 4.4791 17.3386 4.53623 17.3859 4.60332C17.4332 4.67041 17.4668 4.74615 17.4848 4.82623C17.5028 4.90631 17.5048 4.98915 17.4908 5.07002C17.4768 5.15089 17.447 5.22821 17.4031 5.29757C17.3593 5.36692 17.3021 5.42696 17.235 5.47424C17.1679 5.52152 17.0922 5.55512 17.0121 5.57313C16.9321 5.59113 16.8492 5.59319 16.7683 5.57918L16.5942 5.55002L15.7567 16.4417C15.7084 17.0697 15.4248 17.6563 14.9627 18.0843C14.5006 18.5122 13.894 18.75 13.2642 18.75H6.73667C6.10683 18.75 5.50022 18.5122 5.03811 18.0843C4.576 17.6563 4.29246 17.0697 4.24417 16.4417L3.40584 5.55002L3.23167 5.57918C3.1508 5.59319 3.06796 5.59113 2.98788 5.57313C2.90781 5.55512 2.83206 5.52152 2.76497 5.47424C2.62948 5.37875 2.53746 5.23335 2.50917 5.07002C2.48088 4.90669 2.51863 4.73881 2.61412 4.60332C2.70961 4.46782 2.85501 4.37581 3.01834 4.34752C4.08939 4.16196 5.16749 4.01962 6.25001 3.92085V3.73168C6.25001 2.42835 7.26084 1.31502 8.59667 1.27252C9.53227 1.24258 10.4686 1.24258 11.4042 1.27252C12.74 1.31502 13.75 2.42835 13.75 3.73168ZM8.63667 2.52168C9.54561 2.49262 10.4552 2.49262 11.3642 2.52168C11.9917 2.54168 12.5 3.07002 12.5 3.73168V3.82585C10.8349 3.72472 9.16514 3.72472 7.50001 3.82585V3.73168C7.50001 3.07002 8.00751 2.54168 8.63667 2.52168ZM8.34084 7.47585C8.33767 7.39377 8.31836 7.31313 8.28402 7.23851C8.24967 7.1639 8.20097 7.09678 8.14069 7.04099C8.08041 6.98519 8.00973 6.94182 7.93269 6.91335C7.85565 6.88487 7.77375 6.87184 7.69167 6.87502C7.6096 6.87819 7.52895 6.8975 7.45433 6.93184C7.37972 6.96618 7.3126 7.01488 7.25681 7.07516C7.20102 7.13545 7.15764 7.20612 7.12917 7.28317C7.10069 7.36021 7.08767 7.44211 7.09084 7.52418L7.38001 15.0242C7.38641 15.1898 7.45837 15.3462 7.58003 15.4588C7.64027 15.5145 7.71091 15.5578 7.7879 15.5863C7.86489 15.6148 7.94673 15.6278 8.02876 15.6246C8.11078 15.6214 8.19137 15.6021 8.26593 15.5678C8.3405 15.5335 8.40757 15.4848 8.46332 15.4246C8.51908 15.3643 8.56242 15.2937 8.59088 15.2167C8.61933 15.1397 8.63235 15.0579 8.62917 14.9759L8.34084 7.47585ZM12.9075 7.52418C12.9136 7.44053 12.9028 7.3565 12.8758 7.27711C12.8487 7.19772 12.806 7.12458 12.7501 7.06205C12.6942 6.99953 12.6262 6.9489 12.5503 6.91317C12.4745 6.87745 12.3922 6.85737 12.3083 6.85413C12.2245 6.85088 12.1409 6.86454 12.0625 6.89429C11.9841 6.92403 11.9124 6.96926 11.8519 7.02728C11.7913 7.08529 11.743 7.1549 11.7099 7.23197C11.6768 7.30904 11.6595 7.39198 11.6592 7.47585L11.37 14.9759C11.3636 15.1416 11.4233 15.3031 11.536 15.4249C11.6487 15.5466 11.8051 15.6186 11.9708 15.625C12.1366 15.6314 12.2981 15.5717 12.4199 15.459C12.5416 15.3464 12.6136 15.1899 12.62 15.0242L12.9075 7.52418Z" fill="white"/>
</svg>
