<svg width="18" height="18" viewBox="0 0 18 18" fill="none" xmlns="http://www.w3.org/2000/svg">
<path d="M12.0173 7.01102H15.7613L13.3755 4.62377C12.6074 3.85567 11.6507 3.30331 10.6014 3.02222C9.55217 2.74113 8.44741 2.74121 7.39821 3.02246C6.349 3.30371 5.39233 3.85621 4.62436 4.62442C3.85638 5.39263 3.30418 6.34947 3.02326 7.39877M2.23876 14.733V10.989M2.23876 10.989H5.98276M2.23876 10.989L4.62376 13.3763C5.39184 14.1444 6.3486 14.6967 7.39785 14.9778C8.44709 15.2589 9.55185 15.2588 10.6011 14.9776C11.6503 14.6963 12.6069 14.1438 13.3749 13.3756C14.1429 12.6074 14.6951 11.6506 14.976 10.6013M15.7613 3.26702V7.00952" stroke="white" stroke-width="1.5" stroke-linecap="round" stroke-linejoin="round"/>
</svg>
