<svg width="44" height="44" viewBox="0 0 44 44" fill="none" xmlns="http://www.w3.org/2000/svg">
<path d="M22 38.5C25.6575 38.4998 29.2114 37.2849 32.1036 35.046C34.9958 32.8072 37.0625 29.6712 37.9793 26.1305M22 38.5C18.3425 38.4998 14.7887 37.2849 11.8965 35.046C9.00425 32.8072 6.93748 29.6712 6.02067 26.1305M22 38.5C26.5558 38.5 30.25 31.1117 30.25 22C30.25 12.8883 26.5558 5.5 22 5.5M22 38.5C17.4442 38.5 13.75 31.1117 13.75 22C13.75 12.8883 17.4442 5.5 22 5.5M37.9793 26.1305C38.3185 24.8105 38.5 23.4263 38.5 22C38.5045 19.1622 37.7737 16.3716 36.3788 13.9003M37.9793 26.1305C33.0901 28.8409 27.5902 30.2588 22 30.25C16.203 30.25 10.7562 28.7558 6.02067 26.1305M6.02067 26.1305C5.67371 24.7811 5.49877 23.3933 5.50001 22C5.50001 19.0575 6.27001 16.2928 7.62117 13.9003M22 5.5C24.9264 5.49878 27.8005 6.27616 30.3274 7.75237C32.8542 9.22858 34.9428 11.3505 36.3788 13.9003M22 5.5C19.0736 5.49878 16.1995 6.27616 13.6727 7.75237C11.1458 9.22858 9.05723 11.3505 7.62117 13.9003M36.3788 13.9003C32.3871 17.3579 27.281 19.2576 22 19.25C16.5037 19.25 11.4767 17.2333 7.62117 13.9003" stroke="white" stroke-width="2" stroke-linecap="round" stroke-linejoin="round"/>
</svg>
