<svg width="18" height="18" viewBox="0 0 18 18" fill="none" xmlns="http://www.w3.org/2000/svg">
<g clip-path="url(#clip0_738_6)">
<path fill-rule="evenodd" clip-rule="evenodd" d="M9.05737 2.2489H9.1575C10.0823 2.25228 14.7679 2.28603 16.0312 2.62578C16.4132 2.72947 16.7612 2.93158 17.0406 3.21191C17.3199 3.49224 17.5208 3.84098 17.6231 4.22328C17.7367 4.65078 17.8166 5.21665 17.8706 5.80053L17.8819 5.91753L17.9066 6.21003L17.9156 6.32703C17.9888 7.35528 17.9977 8.31828 17.9989 8.52865V8.61303C17.9977 8.83128 17.9876 9.85953 17.9066 10.9305L17.8976 11.0487L17.8875 11.1657C17.8312 11.8092 17.748 12.4482 17.6231 12.9184C17.5211 13.3008 17.3203 13.6498 17.0409 13.9301C16.7615 14.2105 16.4133 14.4125 16.0312 14.5159C14.7263 14.8669 9.76612 14.8917 9.07875 14.8928H8.919C8.57137 14.8928 7.13362 14.886 5.62612 14.8343L5.43487 14.8275L5.337 14.823L5.14462 14.8152L4.95225 14.8073C3.7035 14.7522 2.51438 14.6633 1.9665 14.5148C1.58455 14.4115 1.23645 14.2097 0.957065 13.9295C0.677681 13.6493 0.476828 13.3006 0.374625 12.9184C0.24975 12.4493 0.1665 11.8092 0.11025 11.1657L0.10125 11.0475L0.09225 10.9305C0.0367285 10.1682 0.00596235 9.40432 0 8.64003L0 8.50165C0.00225 8.25978 0.01125 7.4239 0.072 6.5014L0.079875 6.38553L0.08325 6.32703L0.09225 6.21003L0.117 5.91753L0.12825 5.80053C0.18225 5.21665 0.262125 4.64965 0.37575 4.22328C0.47778 3.84083 0.678558 3.49193 0.957952 3.21154C1.23735 2.93116 1.58554 2.72916 1.96762 2.62578C2.5155 2.47953 3.70462 2.38953 4.95337 2.33328L5.14462 2.3254L5.33812 2.31865L5.43487 2.31528L5.62725 2.3074C6.69792 2.27295 7.76903 2.25382 8.84025 2.25003H9.05737V2.2489ZM7.2 5.86015V11.2804L11.8766 8.5714L7.2 5.86015Z" fill="white"/>
</g>
<defs>
<clipPath id="clip0_738_6">
<rect width="18" height="18" fill="white"/>
</clipPath>
</defs>
</svg>
